<?xml version="1.0" encoding="utf-8"?>
<!-- Generator: Adobe Illustrator 17.0.0, SVG Export Plug-In . SVG Version: 6.00 Build 0)  -->
<!DOCTYPE svg PUBLIC "-//W3C//DTD SVG 1.1//EN" "http://www.w3.org/Graphics/SVG/1.1/DTD/svg11.dtd">
<svg version="1.1" id="Layer_1" xmlns="http://www.w3.org/2000/svg" xmlns:xlink="http://www.w3.org/1999/xlink" x="0px" y="0px"
	 width="44px" height="32px" viewBox="0 0 44 32" enable-background="new 0 0 44 32" xml:space="preserve">
<g id="Shopping_Cart">
	<g>
		<path fill="#444444" d="M39.964,25.241l0.007,0.001l4-17.999l-0.019-0.005C43.972,7.16,44,7.085,44,7c0-0.553-0.447-1-1-1H10.938
			L9.521,0.713L9.506,0.717C9.381,0.306,9.015,0,8.562,0H1C0.447,0,0,0.447,0,1s0.447,1,1,1h6.796l6.246,23.287h0.001
			c0.086,0.282,0.291,0.512,0.559,0.628C14.227,26.523,14,27.233,14,28c0,2.209,1.791,4,4,4s4-1.791,4-4
			c0-0.732-0.211-1.409-0.555-2h11.109C32.211,26.591,32,27.268,32,28c0,2.209,1.791,4,4,4s4-1.791,4-4
			c0-0.767-0.227-1.477-0.602-2.085C39.68,25.793,39.888,25.543,39.964,25.241z M35.895,8h5.859l-0.889,4h-5.414L35.895,8z
			 M11.475,8h6.631l0.443,4h-6.001L11.475,8z M14.157,18l-1.073-4h5.688l0.445,4H14.157z M14.693,20h4.745l0.444,4h-4.116L14.693,20
			z M18,30c-1.104,0-2-0.896-2-2c0-1.104,0.896-2,2-2s2,0.896,2,2C20,29.104,19.104,30,18,30z M26,24h-4.105l-0.443-4H26V24z M26,18
			h-4.771l-0.445-4H26V18z M26,12h-5.438l-0.444-4H26V12z M32.105,24H28v-4h4.549L32.105,24z M32.771,18H28v-4h5.217L32.771,18z
			 M33.438,12H28V8h5.883L33.438,12z M36,30c-1.104,0-2-0.896-2-2c0-1.104,0.896-2,2-2s2,0.896,2,2C38,29.104,37.104,30,36,30z
			 M38.198,24h-4.081l0.444-4h4.525L38.198,24z M34.783,18l0.445-4h5.191l-0.889,4H34.783z"/>
	</g>
</g>
</svg>
