<?xml version="1.0" encoding="utf-8"?>
<!-- Generator: Adobe Illustrator 17.0.0, SVG Export Plug-In . SVG Version: 6.00 Build 0)  -->
<!DOCTYPE svg PUBLIC "-//W3C//DTD SVG 1.1//EN" "http://www.w3.org/Graphics/SVG/1.1/DTD/svg11.dtd">
<svg version="1.1" id="Layer_1" xmlns="http://www.w3.org/2000/svg" xmlns:xlink="http://www.w3.org/1999/xlink" x="0px" y="0px"
	 width="11338.58px" height="2834.65px" viewBox="0 0 11338.58 2834.65" enable-background="new 0 0 11338.58 2834.65"
	 xml:space="preserve">
<g id="Facebook_Square_x40_2x.png">
	<g>
		<path fill="#444444" d="M5671.989,1412.25c0-0.809,0.083-1.243,1.328-1.243h1.663v-3.009h-2.662c-3.197,0-4.322,1.506-4.322,4.037
			v1.955h-1.994v3.01h1.994v9.002h3.989V1417h2.662l0.353-3.01h-3.015L5671.989,1412.25z M5688,1395h-36c-2.209,0-4,1.791-4,4v36
			c0,2.209,1.791,4,4,4h36c2.209,0,4-1.791,4-4v-36C5692,1396.791,5690.209,1395,5688,1395z M5690,1435c0,1.105-0.896,2-2,2h-36
			c-1.104,0-2-0.895-2-2v-36c0-1.104,0.896-2,2-2h36c1.104,0,2,0.896,2,2V1435z"/>
	</g>
</g>
</svg>
