<?xml version="1.0" encoding="utf-8"?>
<!-- Generator: Adobe Illustrator 17.0.0, SVG Export Plug-In . SVG Version: 6.00 Build 0)  -->
<!DOCTYPE svg PUBLIC "-//W3C//DTD SVG 1.1//EN" "http://www.w3.org/Graphics/SVG/1.1/DTD/svg11.dtd">
<svg version="1.1" id="Layer_1" xmlns="http://www.w3.org/2000/svg" xmlns:xlink="http://www.w3.org/1999/xlink" x="0px" y="0px"
	 width="44px" height="44px" viewBox="0 0 44 44" enable-background="new 0 0 44 44" xml:space="preserve">
<g id="Facebook_Square_x40_2x.png">
	<g>
		<path fill="#444444" d="M40,0H4C1.791,0,0,1.791,0,4v36c0,2.209,1.791,4,4,4h36c2.209,0,4-1.791,4-4V4C44,1.791,42.209,0,40,0z
			 M42,40c0,1.105-0.896,2-2,2H4c-1.104,0-2-0.895-2-2V4c0-1.104,0.896-2,2-2h36c1.104,0,2,0.896,2,2V40z M23.989,17.25
			c0-0.809,0.083-1.243,1.328-1.243h1.663v-3.009h-2.662c-3.197,0-4.322,1.506-4.322,4.037v1.955h-1.994V22h1.994v9.002h3.989V22
			h2.662l0.353-3.01h-3.015L23.989,17.25z"/>
	</g>
</g>
</svg>
