<?xml version="1.0" encoding="utf-8"?>
<!-- Generator: Adobe Illustrator 17.0.0, SVG Export Plug-In . SVG Version: 6.00 Build 0)  -->
<!DOCTYPE svg PUBLIC "-//W3C//DTD SVG 1.1//EN" "http://www.w3.org/Graphics/SVG/1.1/DTD/svg11.dtd">
<svg version="1.1" id="Layer_1" xmlns="http://www.w3.org/2000/svg" xmlns:xlink="http://www.w3.org/1999/xlink" x="0px" y="0px"
	 width="2519.946px" height="1604.151px" viewBox="0 0 2519.946 1604.151" enable-background="new 0 0 2519.946 1604.151"
	 xml:space="preserve">
<g>
	<path fill="#231F20" d="M605.797,615.746c-5.594,12-14.797,16-27.594,12c-12-5.594-16-14.781-12-27.594
		c1.594-4,2.781-7.594,3.594-10.797c0.797-3.203,1.203-6.812,1.203-10.812c0-16.781-7-31.781-21-44.984
		s-30.609-24.609-49.812-34.203s-39-16.797-59.391-21.609c-20.406-4.797-37.406-7.203-51-7.203c-24.812,0-51.016,2.812-78.609,8.406
		s-53,14.391-76.188,26.391c-23.203,12-43,27.406-59.406,46.203c-16.406,18.812-26.594,41.812-30.594,69
		c-3.203,20.812-0.797,38.609,7.203,53.406s19.188,27.188,33.594,37.188c14.391,10,31.188,18.406,50.391,25.203
		C255.391,743.152,275,748.746,295,753.152s39,8.203,57,11.391c18,3.203,33,6.797,45,10.797
		c23.188,5.609,47.391,13.609,72.594,24.016c25.188,10.407,47.984,23.407,68.391,39s36.609,33.203,48.609,52.797
		s16.797,41.391,14.406,65.391c-2.406,29.609-12.609,56.219-30.609,79.812s-40.203,43.797-66.594,60.594
		c-26.406,16.797-55.594,29.594-87.594,38.391c-32,8.812-63.609,13.203-94.812,13.203c-33.594,0-65.594-6.594-96-19.797
		c-30.406-13.188-57.406-27.594-81-43.188S95,1048.95,67,1022.543c-4-4-6-8.797-6-14.391c0-6.406,2-11.609,6-15.609
		s8.797-6.188,14.391-6.594c5.594-0.391,10.406,1.406,14.406,5.406c25.594,24,48.797,43.203,69.594,57.594
		c20.797,14.406,44.594,27.594,71.406,39.594c26.797,12,55,18,84.594,18c25.594,0,51.797-3.594,78.609-10.797
		c26.797-7.203,51.594-17.609,74.391-31.219c22.797-13.594,42.203-29.797,58.203-48.609c16-18.797,25.203-40.203,27.609-64.219
		c1.594-16.797-3.016-32.594-13.812-47.406s-25-28.016-42.594-39.625c-17.609-11.594-37.016-21.594-58.203-30
		c-21.203-8.406-41-15-59.391-19.812c-16-4.797-34.812-9.203-56.406-13.204c-21.609-4-43.609-9-66-15
		c-22.406-6-44-13.203-64.797-21.609c-20.812-8.406-39.016-19.203-54.609-32.406S117,703.23,109,684.027s-10-42.016-6-68.422
		c4.797-33.609,16.594-62.219,35.391-85.828s41.797-42.812,69-57.625c27.203-14.797,56.812-25.594,88.812-32.406
		c32-6.797,63.188-10.203,93.594-10.203c19.188,0,41.797,3.422,67.797,10.25c26,6.844,50.391,16.469,73.203,28.906
		C553.594,481.137,573,496.559,589,514.949c16,18.406,24,39.594,24,63.594C613,589.762,610.594,602.152,605.797,615.746z"/>
	<path fill="#231F20" d="M797.578,102.746c0.797-5.594,3.391-10.188,7.797-13.797c4.406-3.594,9.406-5.406,15-5.406
		c6.406,1.609,11.406,4.406,15,8.406s5,9.203,4.203,15.609l-57.594,588.188c13.594-36,29.578-70,47.984-102s39.406-60,63-84
		s50.203-43.188,79.812-57.594c29.594-14.406,62.406-21.609,98.406-21.609c29.594,0,53.781,10,72.594,30
		c18.797,20,33.844,46.609,45.141,79.797c11.281,33.203,19.156,70.797,23.594,112.797s6.672,85.406,6.672,130.203
		c0,46.407-1.625,92.016-4.859,136.813s-7.078,84.797-11.516,120s-9.891,74.797-16.359,118.797
		c-1.625,5.594-4.641,10.188-9.047,13.797c-4.422,3.578-9.828,4.594-16.219,3c-5.609-0.812-10.016-3.609-13.203-8.406
		c-3.203-4.812-4.406-10-3.609-15.594c7.203-47.188,13-89.594,17.406-127.203c4.391-37.594,8.391-79.594,12-126
		c3.594-46.391,5.406-92.797,5.406-139.204c0-37.594-1.609-73.578-4.812-107.984s-9-64.797-17.406-91.203s-19.406-47.609-33-63.609
		s-31.188-24-52.781-24c-35.219,0-67.016,8.203-95.406,24.609c-28.406,16.406-53.594,38.203-75.594,65.391
		c-22,27.203-41.203,58.609-57.609,94.203s-30.406,72.391-42,110.391c-11.594,38-21,76-28.203,114s-13.203,73-18,105
		l-14.391,142.812v2.391c-0.812,4.812-3.406,8.406-7.812,10.812s-9.203,3.406-14.391,3c-5.203-0.406-9.797-2-13.797-4.812
		c-4-2.797-6-7-6-12.594c0-12,0.797-25.203,2.391-39.609c1.594-12.781,3.203-27.984,4.797-45.594
		c1.594-17.594,4-36.797,7.203-57.594L797.578,102.746z"/>
	<path fill="#231F20" d="M1409.767,438.543c5.594,1.594,9.797,5,12.594,10.203s3.406,10.594,1.812,16.188
		c-8.812,29.609-16.203,56.406-22.203,80.406s-12.609,52-19.797,84c-7.203,32-14,65.406-20.406,100.203s-11.594,70-15.594,105.594
		c-4,35.609-6,69.406-6,101.406c0,24.797,1.594,47.797,4.797,69c3.188,21.203,8.188,39.609,15,55.203
		c6.797,15.594,16,27.797,27.594,36.594c11.594,8.812,25.797,13.203,42.609,13.203c26.391,0,51.984-9.391,76.797-28.203
		c24.797-18.797,48.594-43.797,71.391-75c22.797-31.188,44.391-66.594,64.797-106.203c20.406-39.594,39.406-80,57-121.204
		c17.594-41.188,33.406-81.594,47.406-121.188s25.797-75,35.406-106.203c9.594-31.203,20-66,31.203-104.406
		c1.594-4.797,4.578-8.203,8.984-10.203s9-2.391,13.812-1.188c4.797,1.203,9.203,3.406,13.203,6.594
		c4,3.203,5.594,7.609,4.797,13.203l-73.203,676.797c-0.812,6.406-3.406,11.406-7.797,15c-4.406,3.594-9.406,4.594-15,3
		c-6.406-0.797-11.406-3.203-15-7.203c-3.609-4-5.016-9.188-4.203-15.594l50.406-469.204c-12,34.406-25.609,70.406-40.812,108
		c-15.203,37.594-32,74.594-50.391,111c-18.406,36.406-37.797,71.203-58.203,104.406s-41.797,62.406-64.203,87.594
		c-22.406,25.203-45.797,45.203-70.203,60c-24.406,14.812-49.797,22.203-76.188,22.203c-24,0-44.203-6-60.609-18
		s-29.578-28.188-39.531-48.594s-16.922-44.203-20.891-71.406c-3.984-27.203-5.969-56.406-5.969-87.609
		c0-33.594,1.984-68.781,5.969-105.594c3.969-36.797,8.953-72.797,14.922-108c5.969-35.188,12.344-68.391,19.125-99.594
		s13.188-58.812,19.188-82.812s13-50,21-78C1387.376,440.934,1396.173,436.137,1409.767,438.543z"/>
	<path fill="#231F20" d="M2002.767,484.543c-6.406,0-11.609-2-15.609-6s-6-8.797-6-14.406c0-6.391,2-11.594,6-15.594
		s8.797-6,14.406-6l472.797-4.797c8.797-0.797,15.203,3.203,19.203,12c4,8.812,2.797,16.406-3.609,22.797
		c-28,29.609-53.203,56.812-75.594,81.609c-22.406,24.797-48.203,53.188-77.406,85.188s-59.203,65.203-90,99.609
		s-61,68.797-90.594,103.204c-29.609,34.406-56.609,66.594-81,96.594c-24.406,30-44.594,56.406-60.594,79.203
		s-25.609,39.391-28.812,49.797c-5.594,20,2,33.812,22.797,41.406s48.406,11.391,82.812,11.391c31.188,0,64.797-2.188,100.797-6.594
		s69.391-9.203,100.203-14.406c30.797-5.188,67-12.188,108.594-21c13.594-2.391,22,2.812,25.203,15.594
		c1.594,5.609,0.797,10.812-2.406,15.609c-3.203,4.812-7.594,8-13.188,9.594c-37.609,8-71.016,14.203-100.203,18.609
		c-29.203,4.406-61.406,8.594-96.609,12.594s-69.594,6-103.188,6c-25.609,0-49.812-1.609-72.609-4.797
		c-22.812-3.188-42.016-8.594-57.609-16.203c-15.594-7.594-26.797-17.797-33.594-30.594s-7.391-29.203-1.797-49.203
		c4-13.594,16-34.406,36-62.406s44.797-60,74.391-96s62-74.188,97.203-114.594c35.203-40.406,70-79.797,104.406-118.203
		c34.406-38.391,66.609-73.781,96.609-106.188s54.188-58.609,72.594-78.609L2002.767,484.543z"/>
</g>
</svg>
