<?xml version="1.0" encoding="utf-8"?>
<!-- Generator: Adobe Illustrator 17.0.0, SVG Export Plug-In . SVG Version: 6.00 Build 0)  -->
<!DOCTYPE svg PUBLIC "-//W3C//DTD SVG 1.1//EN" "http://www.w3.org/Graphics/SVG/1.1/DTD/svg11.dtd">
<svg version="1.1" id="Layer_1" xmlns="http://www.w3.org/2000/svg" xmlns:xlink="http://www.w3.org/1999/xlink" x="0px" y="0px"
	 width="44px" height="44px" viewBox="0 0 44 44" enable-background="new 0 0 44 44" xml:space="preserve">
<g id="Twitter_Square">
	<g>
		<path fill="#444444" d="M32.448,14.297c-0.793,0.463-1.671,0.799-2.606,0.979c-0.749-0.784-1.815-1.274-2.995-1.274
			c-2.266,0-4.103,1.808-4.103,4.038c0,0.316,0.036,0.624,0.106,0.92c-3.41-0.168-6.434-1.776-8.457-4.22
			c-0.354,0.597-0.556,1.291-0.556,2.031c0,1.4,0.725,2.637,1.825,3.361c-0.672-0.021-1.305-0.203-1.858-0.506
			c0,0.018,0,0.034,0,0.051c0,1.957,1.415,3.589,3.292,3.96c-0.344,0.093-0.707,0.142-1.081,0.142c-0.264,0-0.521-0.024-0.772-0.072
			c0.522,1.604,2.038,2.772,3.833,2.805c-1.404,1.084-3.173,1.729-5.096,1.729c-0.332,0-0.658-0.019-0.979-0.056
			c1.816,1.146,3.973,1.814,6.29,1.814c7.547,0,11.674-6.154,11.674-11.491c0-0.175-0.004-0.35-0.012-0.522
			c0.802-0.569,1.498-1.28,2.047-2.09c-0.736,0.32-1.526,0.538-2.356,0.636C31.491,16.031,32.141,15.24,32.448,14.297z M40,0H4
			C1.791,0,0,1.791,0,4v36c0,2.209,1.791,4,4,4h36c2.209,0,4-1.791,4-4V4C44,1.791,42.209,0,40,0z M42,40c0,1.105-0.896,2-2,2H4
			c-1.104,0-2-0.895-2-2V4c0-1.104,0.896-2,2-2h36c1.104,0,2,0.896,2,2V40z"/>
	</g>
</g>
</svg>
